<svg width="800" height="520" viewBox="0 0 800 520" fill="none" xmlns="http://www.w3.org/2000/svg">
  <defs>
    <linearGradient id="g1" x1="0" x2="1">
      <stop offset="0" stop-color="#7C3AED"/>
      <stop offset="1" stop-color="#06B6D4"/>
    </linearGradient>
  </defs>
  <rect rx="20" width="800" height="520" fill="#071025" />
  <g transform="translate(40,40)">
    <rect x="0" y="0" width="720" height="440" rx="18" fill="url(#g1)" opacity="0.12" />
    <g transform="translate(28,28)">
      <rect x="0" y="0" width="600" height="180" rx="12" fill="#0B1220" />
      <g transform="translate(16,16)">
        <rect x="0" y="0" width="120" height="90" rx="8" fill="#0b1220" stroke="#19303f" />
        <rect x="140" y="0" width="420" height="26" rx="6" fill="#132433" />
        <rect x="140" y="40" width="360" height="18" rx="6" fill="#0f2430" />
        <rect x="140" y="70" width="320" height="18" rx="6" fill="#0d222e" />
      </g>
      <g transform="translate(16,110)">
        <rect x="0" y="0" width="620" height="12" rx="6" fill="#08121a" />
      </g>
      <g transform="translate(16,140)">
        <rect x="0" y="0" width="620" height="200" rx="12" fill="#071025" opacity="0.6" />
      </g>
    </g>
    <!-- decorative floating shapes -->
    <circle cx="600" cy="60" r="36" fill="#7C3AED" opacity="0.12" />
    <circle cx="660" cy="130" r="24" fill="#06B6D4" opacity="0.12" />
    <rect x="520" y="300" width="160" height="80" rx="12" fill="#7C3AED" opacity="0.08" />
    <rect x="420" y="340" width="220" height="24" rx="12" fill="#06B6D4" opacity="0.08" />
  </g>
</svg>
